<svg xmlns="http://www.w3.org/2000/svg" viewBox="0 0 487.26 547.56">
  <path d="M482.39,155.43,431.52,184.8a3.24,3.24,0,0,0-1.63,2.81v33.15A284.31,284.31,0,0,1,287.74,467l-27.35,15.79a3.23,3.23,0,0,0-1.62,2.81v58.74a3.24,3.24,0,0,0,4.87,2.81L474.47,425.39a25.56,25.56,0,0,0,12.79-22.14v-245A3.26,3.26,0,0,0,484,155,3.18,3.18,0,0,0,482.39,155.43Z" fill="#fff"/>
  <path d="M226.87,482.76,199.52,467A284.32,284.32,0,0,1,57.36,220.76V187.61a3.22,3.22,0,0,0-1.59-2.81L5,155.43a3.25,3.25,0,0,0-5,2.81v245a25.51,25.51,0,0,0,12.79,22.14L223.62,547.12a3.25,3.25,0,0,0,4.44-1.18,3.34,3.34,0,0,0,.43-1.63V485.57A3.25,3.25,0,0,0,226.87,482.76Z" fill="#fff"/>
  <path d="M21.36,130l50.88,29.37a3.19,3.19,0,0,0,3.24,0l26-15a284.28,284.28,0,0,1,284.3,0l26,15a3.19,3.19,0,0,0,3.24,0L466,130a3.24,3.24,0,0,0,1.18-4.43,3.18,3.18,0,0,0-1.18-1.18L256.52,3.42a25.63,25.63,0,0,0-25.58,0l-209.43,121a3.24,3.24,0,0,0-1.32,4.38A3.29,3.29,0,0,0,21.36,130Z" fill="#fff"/>
  <path d="M335.55,210.86a31.72,31.72,0,0,1,32,31.43v.32a30,30,0,0,1,0,4.24L352,363.26a31.71,31.71,0,0,1-31.69,27.52H167.18a31.71,31.71,0,0,1-31.69-27.52L120,246.85A31.84,31.84,0,0,1,126.09,223a31.06,31.06,0,0,1,21.12-12.17,28.33,28.33,0,0,1,4.12,0h29.58a70.75,70.75,0,0,1-.85-10.58,63.38,63.38,0,1,1,126.76,0,70.75,70.75,0,0,1-.85,10.58ZM243.44,158a42.29,42.29,0,0,0-42.25,42.33h0a39.8,39.8,0,0,0,1.37,10.58h81.76a39,39,0,0,0,1.37-10.58A42.29,42.29,0,0,0,243.44,158ZM186.3,270a15.85,15.85,0,1,0,15.84-15.87A15.86,15.86,0,0,0,186.3,270Zm88,0a15.85,15.85,0,1,0,15.85-15.87A15.87,15.87,0,0,0,274.28,270Z" fill="#ffb116"/>
</svg>
